<?xml version="1.0" standalone="no"?>
<!DOCTYPE svg PUBLIC "-//W3C//DTD SVG 20010904//EN"
 "http://www.w3.org/TR/2001/REC-SVG-20010904/DTD/svg10.dtd">
<svg version="1.0" xmlns="http://www.w3.org/2000/svg"
 width="600.000000pt" height="600.000000pt" viewBox="0 0 600.000000 600.000000"
 preserveAspectRatio="xMidYMid meet">
<metadata>
Created by potrace 1.11, written by Peter Selinger 2001-2013
</metadata>
<g transform="translate(0.000000,600.000000) scale(0.100000,-0.100000)"
fill="#000000" stroke="none">
<path d="M2798 5995 c-1 -1 -37 -5 -78 -9 -84 -8 -131 -13 -175 -21 -16 -3
-37 -6 -45 -6 -8 -1 -31 -5 -50 -10 -19 -4 -51 -11 -70 -14 -106 -18 -391
-103 -490 -147 -182 -80 -240 -107 -335 -160 -340 -186 -668 -462 -903 -760
-164 -207 -292 -423 -415 -698 -41 -91 -128 -350 -142 -418 -2 -12 -10 -48
-18 -80 -8 -31 -18 -77 -23 -102 -4 -25 -8 -47 -9 -50 -1 -3 -5 -32 -9 -65 -5
-33 -10 -69 -12 -80 -26 -134 -24 -679 2 -767 3 -9 7 -34 9 -55 4 -46 19 -130
35 -198 6 -27 13 -57 15 -65 9 -47 31 -119 67 -230 142 -436 387 -836 709
-1160 143 -144 196 -191 335 -296 326 -246 709 -427 1094 -518 132 -32 156
-37 200 -41 19 -2 35 -4 35 -5 0 -4 62 -12 195 -27 131 -15 567 -8 666 11 10
2 42 7 69 10 28 4 57 9 65 11 8 2 31 6 50 9 113 17 447 115 534 157 22 10 44
19 49 19 4 0 56 22 113 50 324 153 603 349 853 600 113 113 262 285 308 358
10 15 25 35 33 44 50 56 235 386 293 523 15 37 38 93 42 105 1 3 5 12 8 20 39
88 137 439 152 542 3 21 8 55 11 75 35 224 40 656 10 833 -3 14 -7 43 -10 65
-9 64 -24 146 -36 200 -6 28 -13 57 -15 65 -42 205 -172 532 -301 762 -253
450 -662 866 -1104 1122 -66 38 -339 172 -385 189 -193 71 -358 124 -410 132
-11 1 -40 7 -65 13 -75 18 -101 23 -205 37 -55 8 -118 18 -140 21 -41 6 -500
15 -507 9z m387 -260 c348 -21 669 -106 1024 -273 69 -32 247 -135 320 -186
40 -28 81 -55 89 -61 9 -5 21 -14 27 -20 7 -5 27 -21 46 -35 130 -97 341 -306
451 -447 29 -38 55 -70 58 -73 3 -3 10 -12 15 -21 6 -9 33 -50 61 -90 88 -127
179 -296 249 -459 15 -36 31 -74 36 -85 34 -78 112 -347 124 -427 4 -24 8 -45
10 -48 2 -3 8 -42 14 -86 7 -44 13 -90 16 -102 22 -114 21 -478 -1 -642 -2
-19 -7 -53 -9 -75 -15 -111 -58 -299 -97 -423 -59 -189 -177 -453 -264 -590
-19 -29 -34 -55 -34 -57 0 -3 -35 -54 -77 -113 -332 -463 -732 -773 -1278
-990 -99 -39 -344 -111 -405 -118 -14 -1 -36 -5 -50 -8 -208 -48 -581 -62
-830 -31 -330 40 -692 153 -955 298 -38 21 -82 44 -97 50 -16 6 -28 15 -28 19
0 4 -5 8 -11 8 -10 0 -228 145 -239 159 -3 4 -21 18 -40 31 -82 57 -264 229
-363 343 -29 33 -57 65 -62 71 -41 43 -235 317 -235 331 0 3 -12 24 -26 47
-121 191 -261 559 -310 813 -2 11 -8 43 -14 70 -18 95 -23 140 -36 310 -10
141 -6 343 10 480 23 197 60 365 119 545 17 52 30 98 29 103 -1 4 2 7 8 7 5 0
10 7 10 16 0 38 145 340 219 454 9 14 21 32 26 41 252 406 651 764 1100 987
95 47 318 140 353 147 10 2 37 10 62 18 58 20 184 51 285 71 73 14 108 20 200
31 17 3 82 7 145 11 63 3 116 7 117 7 3 3 126 -1 238 -8z"/>
<path d="M2848 5225 c-1 -1 -39 -6 -82 -10 -43 -4 -88 -9 -100 -11 -12 -2 -46
-8 -76 -14 -152 -26 -355 -89 -490 -153 -36 -17 -67 -31 -70 -31 -8 -1 -104
-50 -110 -56 -3 -3 -21 -14 -40 -24 -65 -35 -214 -139 -290 -200 -86 -70 -237
-219 -295 -292 -22 -27 -42 -51 -46 -54 -34 -31 -156 -222 -237 -372 -30 -55
-129 -295 -136 -327 -2 -9 -6 -23 -9 -31 -6 -16 -36 -130 -43 -165 -2 -11 -6
-31 -9 -45 -27 -129 -39 -261 -40 -440 0 -171 9 -282 30 -382 4 -15 8 -40 10
-55 2 -16 13 -65 25 -109 11 -43 22 -83 23 -89 6 -23 29 -91 37 -110 4 -11 18
-47 31 -80 54 -144 161 -339 268 -485 284 -391 721 -701 1166 -826 66 -19 166
-44 190 -48 17 -2 30 -5 30 -6 0 -1 15 -3 34 -6 19 -2 46 -6 60 -9 148 -27
515 -26 655 1 12 2 46 8 76 14 30 6 64 12 75 14 36 7 150 37 165 43 8 3 21 7
27 9 56 11 383 153 403 174 3 3 21 14 40 24 33 18 163 101 185 118 160 123
316 268 400 373 22 28 43 52 46 55 3 3 32 43 65 90 154 218 259 440 334 706
34 122 33 116 59 309 27 199 21 499 -14 659 -2 12 -7 37 -10 56 -3 19 -14 69
-25 110 -12 41 -22 80 -24 85 -21 84 -85 244 -143 360 -152 302 -359 554 -645
780 -84 67 -299 197 -408 247 -87 40 -247 100 -305 114 -5 2 -35 10 -65 18
-82 22 -173 40 -260 52 -25 3 -56 8 -70 10 -28 6 -386 14 -392 9z m-71 -680
c0 -137 2 -258 2 -267 1 -16 14 -18 129 -18 l128 0 -1 268 0 267 172 3 172 2
0 -266 c0 -146 1 -267 3 -269 2 -2 48 -6 103 -10 54 -3 102 -8 106 -10 3 -3
24 -7 45 -9 81 -11 222 -66 304 -119 58 -38 147 -133 189 -201 32 -54 65 -152
55 -168 -3 -4 -1 -8 4 -8 9 0 9 -230 0 -260 -3 -8 -10 -33 -16 -55 -14 -48
-73 -149 -110 -188 -15 -16 -53 -45 -85 -65 l-59 -36 88 -44 c124 -61 199
-120 258 -202 37 -51 82 -156 91 -215 4 -22 9 -51 12 -65 12 -61 6 -227 -11
-285 -72 -244 -245 -433 -457 -498 -109 -33 -168 -49 -199 -52 -35 -4 -121
-16 -145 -21 -11 -2 -54 -7 -95 -10 -41 -3 -76 -7 -78 -9 -2 -2 -3 -123 -3
-269 l0 -266 -172 2 -171 3 -1 265 0 265 -127 3 c-117 2 -128 1 -129 -15 0
-10 -1 -132 -1 -270 l-1 -253 -171 0 -172 0 1 258 c0 141 -1 263 -3 270 -3 9
-79 12 -334 12 l-330 0 6 27 c3 16 12 69 21 118 8 50 17 101 20 115 5 23 8 40
19 120 2 14 4 28 5 31 1 3 61 6 134 6 151 1 204 17 213 66 1 4 2 10 4 15 1 4
2 357 2 785 1 825 1 818 -45 833 -11 3 -98 6 -193 6 -162 -1 -172 0 -177 19
-3 10 -1 19 5 19 5 0 6 5 2 11 -5 9 -8 153 -5 314 l1 35 328 0 327 0 0 270 -1
270 171 -2 170 -3 2 -250z"/>
<path d="M2779 3850 c-1 -22 -1 -549 0 -586 l1 -32 243 2 c259 3 292 8 382 61
99 58 143 152 132 285 -10 130 -66 204 -192 255 -70 28 -71 28 -317 29 -216 1
-248 0 -249 -14z"/>
<path d="M2799 2870 l-22 -6 0 -344 c1 -190 2 -350 2 -356 1 -19 551 -11 616
9 76 22 103 34 149 66 129 89 177 201 150 355 -21 122 -176 252 -324 272 -64
8 -538 12 -571 4z"/>
</g>
</svg>
